<svg xmlns="http://www.w3.org/2000/svg" xmlns:svg="http://www.w3.org/2000/svg" xmlns:xlink="http://www.w3.org/1999/xlink" id="svg2" width="86" height="86" x="0" y="0" enable-background="new 0 0 86 86" version="1.1" viewBox="0 0 86 86" xml:space="preserve"><metadata id="metadata27"/><defs id="defs25"><linearGradient id="linearGradient3779"><stop style="stop-color:#bcbcbc;stop-opacity:1" id="stop3781" offset="0"/><stop style="stop-color:#fff;stop-opacity:1" id="stop3783" offset="1"/></linearGradient><linearGradient id="linearGradient3785" x1="43.129" x2="43.019" y1="57.638" y2="30.241" gradientUnits="userSpaceOnUse" xlink:href="#linearGradient3779"/><filter id="filter3829" width="1.5" height="1.5" x="-.25" y="-.25"><feGaussianBlur id="feGaussianBlur3831" in="SourceAlpha" result="blur" stdDeviation="2"/><feColorMatrix id="feColorMatrix3833" result="bluralpha" type="matrix" values="1 0 0 0 0 0 1 0 0 0 0 0 1 0 0 0 0 0 0.5 0"/><feOffset id="feOffset3835" dx="2" dy="2" in="bluralpha" result="offsetBlur"/><feMerge id="feMerge3837"><feMergeNode id="feMergeNode3839" in="offsetBlur"/><feMergeNode id="feMergeNode3841" in="SourceGraphic"/></feMerge></filter><linearGradient id="linearGradient23103" x1="0" x2="1" y1="0" y2="0" gradientTransform="matrix(0,-21.095261,-21.095261,0,461.10156,174.82715)" gradientUnits="userSpaceOnUse" spreadMethod="pad" xlink:href="#linearGradient8305"/><linearGradient id="linearGradient8305" x1="0" x2="1" y1="0" y2="0" gradientTransform="matrix(0,-21.095261,-21.095261,0,461.10156,174.82715)" gradientUnits="userSpaceOnUse" spreadMethod="pad"><stop id="stop8307" offset="0" style="stop-opacity:1;stop-color:#f6f9ec"/><stop id="stop8309" offset="1" style="stop-opacity:1;stop-color:#d0c9c3"/></linearGradient><linearGradient id="linearGradient23420" x1="0" x2="1" y1="0" y2="0" gradientTransform="matrix(0,26.369076,-26.369076,0,43.000075,30.804812)" gradientUnits="userSpaceOnUse" spreadMethod="pad" xlink:href="#linearGradient8305"/><filter id="filter3017" width="1.5" height="1.5" x="-.25" y="-.25"><feGaussianBlur id="feGaussianBlur3019" in="SourceAlpha" result="blur" stdDeviation="2"/><feColorMatrix id="feColorMatrix3021" result="bluralpha" type="matrix" values="1 0 0 0 0 0 1 0 0 0 0 0 1 0 0 0 0 0 0.5 0"/><feOffset id="feOffset3023" dx="2" dy="2" in="bluralpha" result="offsetBlur"/><feMerge id="feMerge3025"><feMergeNode id="feMergeNode3027" in="offsetBlur"/><feMergeNode id="feMergeNode3029" in="SourceGraphic"/></feMerge></filter></defs><g id="Layer_1" transform="matrix(-1,0,0,1,86,0)"><linearGradient id="SVGID_1_" x1="22.49" x2="85.798" y1="63.51" y2=".202" gradientUnits="userSpaceOnUse"><stop style="stop-color:#dc6a00;stop-opacity:1" id="stop7" offset="0"/><stop style="stop-color:#f3cb00;stop-opacity:1" id="stop9" offset="1"/></linearGradient><path id="path11" d="M 84.277,0.3 H 43 C 19.417,0.3 0.3,19.418 0.3,43 v 41.277 c 0,0.786 0.637,1.423 1.423,1.423 H 43 C 66.583,85.7 85.7,66.582 85.7,43 V 1.723 C 85.7,0.937 85.063,0.3 84.277,0.3 z" style="fill:url(#SVGID_1_)"/></g><path id="path8311" d="m 21.344375,28.92375 c -1.19125,0 -2.16625,0.975 -2.16625,2.16875 l 0,0 0,5.41125 c 0,1.19 0.975,2.16625 2.16625,2.16625 l 0,0 43.3125,0 c 1.19125,0 2.165,-0.97625 2.165,-2.16625 l 0,0 0,-5.41125 c 0,-1.19375 -0.97375,-2.16875 -2.165,-2.16875 l 0,0 -43.3125,0 z m 0,18.4075 c -1.19125,0 -2.16625,0.975 -2.16625,2.16625 l 0,0 0,5.41375 c 0,1.19125 0.975,2.165 2.16625,2.165 l 0,0 43.3125,0 c 1.19125,0 2.165,-0.97375 2.165,-2.165 l 0,0 0,-5.41375 c 0,-1.19125 -0.97375,-2.16625 -2.165,-2.16625 l 0,0 -43.3125,0 z" style="fill:url(#linearGradient23420);stroke:none;filter:url(#filter3017)"/></svg>